<svg xmlns="http://www.w3.org/2000/svg" width="591" height="591" viewBox="0 0 17083 17083" shape-rendering="geometricPrecision" text-rendering="geometricPrecision" image-rendering="optimizeQuality" fill-rule="evenodd" clip-rule="evenodd"><defs><style>.str0{stroke:#373435;stroke-width:170.632;stroke-linecap:round;stroke-linejoin:round}.fil0{fill:none}</style></defs><g id="Layer_x0020_1"><path class="fil0" d="M0 0h17083v17083H0z"/><circle cx="8542" cy="8542" r="8351" fill="#58c9d1"/><path d="M8542 14119V5240c-663-922-3545-2420-5924-1656l-322 8789c2508-806 5546 773 6246 1746zm0 0V5240c663-922 3544-2420 5923-1656l323 8789c-2509-806-5547 773-6246 1746z" fill="#fefefe" id="_1537378145888"/><path class="fil0 str0" d="M8542 5240c-663-922-3545-2420-5924-1656m5924 10535c-700-973-3738-2552-6246-1746m322-8789l-322 8789m6246-7133v8879m0 35c-686-775-3665-1984-6124-1341m0 0l22-484m6102 1876c-679-612-3630-1606-6066-1099m6066 1099c-672-432-3593-1134-6004-776"/><path class="str0" fill="#373435" d="M8225 14020h634v185h-634z"/><path class="fil0 str0" d="M2476 13106l29-315m33 638l30-341m5974-7848c663-922 3545-2420 5923-1656M8542 14119c699-973 3738-2552 6246-1746m-323-8789l323 8789m-6246 1781c686-775 3664-1984 6124-1341m0 0l-23-484m-6101 1876c679-612 3629-1606 6065-1099m-6065 1099c672-432 3592-1134 6003-776m62-323l-28-315m-34 638l-30-341"/><path d="M7332 10225h-510l-413-1097H4746l-392 1097h-510l1503-3919h476l1509 3919zM6260 8713l-614-1672c-21-54-42-141-63-259h-13c-18 110-40 198-64 263l-609 1668h1363zm4409-1577c-73 3-180 5-320 5-171 0-327-2-467-5v-417c195 13 372 18 530 18h279c6-99 18-288 38-567l485 27c-12 119-31 294-56 527 548-21 1033-59 1454-114v412c-497 49-992 83-1485 100-15 199-23 375-23 531 182-49 386-73 613-73 22-76 45-174 69-293l434 79c-14 58-38 142-72 254 295 64 522 213 679 447 132 193 199 416 199 671 0 462-163 809-491 1042-236 167-565 279-988 335l-192-416c447-50 764-163 952-340 153-143 230-337 230-582 0-248-57-444-172-588-87-110-197-177-328-203-214 633-477 1121-792 1465-292 318-588 477-887 477-434 0-650-229-650-687 0-328 100-629 299-904 168-229 384-406 648-530 0-223 5-447 14-671zm476 1795c208-312 364-640 467-985-177 0-353 29-532 87 0 388 21 687 65 898zm-333 375c-85-279-136-636-152-1072-169 116-301 263-396 438-88 162-132 329-132 501 0 231 85 347 252 347 133 0 276-71 428-214z" fill="#869497" fill-rule="nonzero"/></g></svg>