<svg xmlns="http://www.w3.org/2000/svg" width="591" height="591" viewBox="0 0 57697 57697" shape-rendering="geometricPrecision" text-rendering="geometricPrecision" image-rendering="optimizeQuality" fill-rule="evenodd" clip-rule="evenodd"><defs><style>.str0{stroke:#373435;stroke-width:576.289;stroke-linecap:round;stroke-linejoin:round}.fil0{fill:none}</style></defs><g id="Layer_x0020_1"><path class="fil0" d="M0 0h57697v57697H0z"/><circle cx="28849" cy="28849" r="28204" fill="#1374c4"/><path class="str0" fill="#fefefe" d="M15278 11111h27141v35476H15278z"/><path d="M36010 25623v1636h-927v-1577c-1118 0-2028-216-2726-649v-1685c307 265 724 490 1250 673 525 180 1017 270 1476 270v-3354c-1188-549-1958-1056-2306-1517-350-464-525-1013-525-1647 0-749 265-1396 798-1942s1211-873 2033-984v-1360h927v1329c1056 31 1785 170 2187 423v1617c-546-402-1278-618-2187-649v3475c1108 513 1865 1010 2272 1494 407 482 611 1028 611 1639 0 739-255 1357-763 1855-507 499-1216 816-2120 953zm-927-6371v-3006c-379 74-678 234-899 482-222 244-333 543-333 896 0 371 90 675 271 912 183 237 502 474 961 716zm927 2092v2901c855-181 1283-626 1283-1335 0-592-428-1115-1283-1566z" fill="#869497" fill-rule="nonzero"/><path class="fil0 str0" d="M17940 17272h9784m-9784 2617h8233"/><path class="fil0" d="M18023 12209h21652M18023 45489h21652" stroke-dasharray="576.288507 1728.865521" stroke="#373435" stroke-width="576.289" stroke-linecap="round" stroke-linejoin="round" id="_1537378109024"/><path class="fil0 str0" d="M17566 29438h22567v13926H17566z"/><path class="str0" fill="#869497" d="M17566 29438h22567v2999H17566z"/><path class="fil0 str0" d="M24395 29438v13927m11537-13927v13927M17940 22507h9784"/></g></svg>