<svg xmlns="http://www.w3.org/2000/svg" width="591" height="591" viewBox="0 0 50250 50250" shape-rendering="geometricPrecision" text-rendering="geometricPrecision" image-rendering="optimizeQuality" fill-rule="evenodd" clip-rule="evenodd"><path fill="none" d="M0 0h50250v50250H0z"/><circle cx="25125" cy="25125" r="24564" fill="#3c97cc"/><path d="M7830 22484L22484 7830c1453-1453 3829-1453 5282 0l10303 10304h-6520c-282-915-777-1728-1487-2441-1230-1237-2893-1852-4997-1852-1978 0-3585 559-4829 1677-1245 1118-1867 2467-1867 4054 0 1552 525 2810 1566 3774 958 881 2417 1745 4378 2591 184 78 372 156 565 233 1880 902 3110 1657 3683 2258 573 594 860 1391 860 2376 0 937-357 1754-1084 2460-727 699-1775 1049-3152 1049-1356 0-2425-448-3215-1342-790-895-1188-1943-1188-3152H9883l-2053-2053c-1453-1453-1453-3829 0-5282zm32538-2052l2052 2052c1453 1453 1453 3829 0 5282L27766 42420c-1453 1453-3829 1453-5282 0L12181 32117h6521c281 914 777 1727 1486 2440 1230 1237 2893 1852 4997 1852 1978 0 3586-559 4830-1677s1866-2467 1866-4054c0-1551-524-2809-1566-3774-957-881-2417-1745-4378-2591-184-78-372-156-564-233-1880-902-3111-1656-3684-2258-573-594-859-1390-859-2376 0-936 356-1754 1083-2460 727-699 1775-1048 3152-1048 1356 0 2425 447 3215 1342 790 894 1188 1942 1188 3152h10900z" fill="#fefefe" stroke="#373435" stroke-width="501.904" stroke-linecap="round" stroke-linejoin="round"/></svg>